<mxfile host="app.diagrams.net" modified="2023-08-25T05:59:37.205Z" agent="Mozilla/5.0 (Windows NT 10.0; Win64; x64) AppleWebKit/537.36 (KHTML, like Gecko) Chrome/110.0.0.0 Safari/537.36" etag="BRSMLSAzliT1iXR9ZBcF" version="21.6.9" type="device">
  <diagram id="C5RBs43oDa-KdzZeNtuy" name="Page-1">
    <mxGraphModel dx="1536" dy="1626" grid="1" gridSize="10" guides="1" tooltips="1" connect="1" arrows="1" fold="1" page="1" pageScale="1" pageWidth="2300" pageHeight="2500" math="0" shadow="0">
      <root>
        <mxCell id="WIyWlLk6GJQsqaUBKTNV-0" />
        <mxCell id="WIyWlLk6GJQsqaUBKTNV-1" parent="WIyWlLk6GJQsqaUBKTNV-0" />
        <mxCell id="Y0rhrzjeKMUjcfc9ekNY-20" style="edgeStyle=orthogonalEdgeStyle;rounded=0;orthogonalLoop=1;jettySize=auto;html=1;exitX=0.5;exitY=1;exitDx=0;exitDy=0;" parent="WIyWlLk6GJQsqaUBKTNV-1" source="Y0rhrzjeKMUjcfc9ekNY-0" target="Y0rhrzjeKMUjcfc9ekNY-1" edge="1">
          <mxGeometry relative="1" as="geometry" />
        </mxCell>
        <mxCell id="Y0rhrzjeKMUjcfc9ekNY-21" style="edgeStyle=orthogonalEdgeStyle;rounded=0;orthogonalLoop=1;jettySize=auto;html=1;exitX=0.5;exitY=1;exitDx=0;exitDy=0;" parent="WIyWlLk6GJQsqaUBKTNV-1" source="Y0rhrzjeKMUjcfc9ekNY-0" target="Y0rhrzjeKMUjcfc9ekNY-2" edge="1">
          <mxGeometry relative="1" as="geometry" />
        </mxCell>
        <mxCell id="Y0rhrzjeKMUjcfc9ekNY-22" style="edgeStyle=orthogonalEdgeStyle;rounded=0;orthogonalLoop=1;jettySize=auto;html=1;exitX=0.5;exitY=1;exitDx=0;exitDy=0;" parent="WIyWlLk6GJQsqaUBKTNV-1" source="Y0rhrzjeKMUjcfc9ekNY-0" target="Y0rhrzjeKMUjcfc9ekNY-3" edge="1">
          <mxGeometry relative="1" as="geometry" />
        </mxCell>
        <mxCell id="Y0rhrzjeKMUjcfc9ekNY-23" style="edgeStyle=orthogonalEdgeStyle;rounded=0;orthogonalLoop=1;jettySize=auto;html=1;exitX=0.5;exitY=1;exitDx=0;exitDy=0;entryX=0.5;entryY=0;entryDx=0;entryDy=0;" parent="WIyWlLk6GJQsqaUBKTNV-1" source="Y0rhrzjeKMUjcfc9ekNY-0" target="Y0rhrzjeKMUjcfc9ekNY-4" edge="1">
          <mxGeometry relative="1" as="geometry" />
        </mxCell>
        <mxCell id="Y0rhrzjeKMUjcfc9ekNY-95" style="edgeStyle=orthogonalEdgeStyle;rounded=0;orthogonalLoop=1;jettySize=auto;html=1;exitX=0.5;exitY=1;exitDx=0;exitDy=0;" parent="WIyWlLk6GJQsqaUBKTNV-1" source="Y0rhrzjeKMUjcfc9ekNY-0" target="Y0rhrzjeKMUjcfc9ekNY-88" edge="1">
          <mxGeometry relative="1" as="geometry" />
        </mxCell>
        <mxCell id="Y0rhrzjeKMUjcfc9ekNY-0" value="&lt;font style=&quot;font-size: 18px;&quot;&gt;Sydney AirBnB Data Analysis Project&lt;/font&gt;" style="rounded=0;whiteSpace=wrap;html=1;fillColor=#fad9d5;strokeColor=#ae4132;fontStyle=1" parent="WIyWlLk6GJQsqaUBKTNV-1" vertex="1">
          <mxGeometry x="750" y="50" width="200" height="60" as="geometry" />
        </mxCell>
        <mxCell id="Y0rhrzjeKMUjcfc9ekNY-12" style="edgeStyle=orthogonalEdgeStyle;rounded=0;orthogonalLoop=1;jettySize=auto;html=1;exitX=0.75;exitY=1;exitDx=0;exitDy=0;entryX=1;entryY=0.5;entryDx=0;entryDy=0;" parent="WIyWlLk6GJQsqaUBKTNV-1" source="Y0rhrzjeKMUjcfc9ekNY-1" target="Y0rhrzjeKMUjcfc9ekNY-7" edge="1">
          <mxGeometry relative="1" as="geometry" />
        </mxCell>
        <mxCell id="Y0rhrzjeKMUjcfc9ekNY-13" style="edgeStyle=orthogonalEdgeStyle;rounded=0;orthogonalLoop=1;jettySize=auto;html=1;exitX=0.75;exitY=1;exitDx=0;exitDy=0;entryX=1;entryY=0.5;entryDx=0;entryDy=0;" parent="WIyWlLk6GJQsqaUBKTNV-1" source="Y0rhrzjeKMUjcfc9ekNY-1" target="Y0rhrzjeKMUjcfc9ekNY-8" edge="1">
          <mxGeometry relative="1" as="geometry" />
        </mxCell>
        <mxCell id="Y0rhrzjeKMUjcfc9ekNY-14" style="edgeStyle=orthogonalEdgeStyle;rounded=0;orthogonalLoop=1;jettySize=auto;html=1;exitX=0.75;exitY=1;exitDx=0;exitDy=0;entryX=1;entryY=0.5;entryDx=0;entryDy=0;" parent="WIyWlLk6GJQsqaUBKTNV-1" source="Y0rhrzjeKMUjcfc9ekNY-1" target="Y0rhrzjeKMUjcfc9ekNY-9" edge="1">
          <mxGeometry relative="1" as="geometry" />
        </mxCell>
        <mxCell id="Y0rhrzjeKMUjcfc9ekNY-29" style="edgeStyle=orthogonalEdgeStyle;rounded=0;orthogonalLoop=1;jettySize=auto;html=1;exitX=0.75;exitY=1;exitDx=0;exitDy=0;entryX=1;entryY=0.5;entryDx=0;entryDy=0;" parent="WIyWlLk6GJQsqaUBKTNV-1" source="Y0rhrzjeKMUjcfc9ekNY-1" target="Y0rhrzjeKMUjcfc9ekNY-25" edge="1">
          <mxGeometry relative="1" as="geometry" />
        </mxCell>
        <mxCell id="BzDx3rykiDufLXHR9xNU-2" style="edgeStyle=orthogonalEdgeStyle;rounded=0;orthogonalLoop=1;jettySize=auto;html=1;exitX=0.75;exitY=1;exitDx=0;exitDy=0;entryX=1;entryY=0.5;entryDx=0;entryDy=0;" edge="1" parent="WIyWlLk6GJQsqaUBKTNV-1" source="Y0rhrzjeKMUjcfc9ekNY-1" target="BzDx3rykiDufLXHR9xNU-1">
          <mxGeometry relative="1" as="geometry" />
        </mxCell>
        <mxCell id="Y0rhrzjeKMUjcfc9ekNY-1" value="&lt;font style=&quot;font-size: 14px;&quot;&gt;Initiation&lt;/font&gt;" style="rounded=1;whiteSpace=wrap;html=1;fillColor=#d5e8d4;strokeColor=#82b366;fontStyle=1" parent="WIyWlLk6GJQsqaUBKTNV-1" vertex="1">
          <mxGeometry x="170" y="190" width="120" height="60" as="geometry" />
        </mxCell>
        <mxCell id="Y0rhrzjeKMUjcfc9ekNY-43" style="edgeStyle=orthogonalEdgeStyle;rounded=0;orthogonalLoop=1;jettySize=auto;html=1;exitX=0.75;exitY=1;exitDx=0;exitDy=0;entryX=1;entryY=0.5;entryDx=0;entryDy=0;" parent="WIyWlLk6GJQsqaUBKTNV-1" source="Y0rhrzjeKMUjcfc9ekNY-2" target="Y0rhrzjeKMUjcfc9ekNY-15" edge="1">
          <mxGeometry relative="1" as="geometry" />
        </mxCell>
        <mxCell id="Y0rhrzjeKMUjcfc9ekNY-44" style="edgeStyle=orthogonalEdgeStyle;rounded=0;orthogonalLoop=1;jettySize=auto;html=1;exitX=0.75;exitY=1;exitDx=0;exitDy=0;entryX=1;entryY=0.5;entryDx=0;entryDy=0;" parent="WIyWlLk6GJQsqaUBKTNV-1" source="Y0rhrzjeKMUjcfc9ekNY-2" target="Y0rhrzjeKMUjcfc9ekNY-30" edge="1">
          <mxGeometry relative="1" as="geometry" />
        </mxCell>
        <mxCell id="Y0rhrzjeKMUjcfc9ekNY-45" style="edgeStyle=orthogonalEdgeStyle;rounded=0;orthogonalLoop=1;jettySize=auto;html=1;exitX=0.75;exitY=1;exitDx=0;exitDy=0;entryX=1;entryY=0.5;entryDx=0;entryDy=0;" parent="WIyWlLk6GJQsqaUBKTNV-1" source="Y0rhrzjeKMUjcfc9ekNY-2" target="Y0rhrzjeKMUjcfc9ekNY-31" edge="1">
          <mxGeometry relative="1" as="geometry" />
        </mxCell>
        <mxCell id="Y0rhrzjeKMUjcfc9ekNY-46" style="edgeStyle=orthogonalEdgeStyle;rounded=0;orthogonalLoop=1;jettySize=auto;html=1;exitX=0.75;exitY=1;exitDx=0;exitDy=0;entryX=1;entryY=0.5;entryDx=0;entryDy=0;" parent="WIyWlLk6GJQsqaUBKTNV-1" source="Y0rhrzjeKMUjcfc9ekNY-2" target="Y0rhrzjeKMUjcfc9ekNY-24" edge="1">
          <mxGeometry relative="1" as="geometry" />
        </mxCell>
        <mxCell id="Y0rhrzjeKMUjcfc9ekNY-47" style="edgeStyle=orthogonalEdgeStyle;rounded=0;orthogonalLoop=1;jettySize=auto;html=1;exitX=0.75;exitY=1;exitDx=0;exitDy=0;entryX=1;entryY=0.5;entryDx=0;entryDy=0;" parent="WIyWlLk6GJQsqaUBKTNV-1" source="Y0rhrzjeKMUjcfc9ekNY-2" target="Y0rhrzjeKMUjcfc9ekNY-16" edge="1">
          <mxGeometry relative="1" as="geometry" />
        </mxCell>
        <mxCell id="Y0rhrzjeKMUjcfc9ekNY-2" value="&lt;font style=&quot;font-size: 14px;&quot;&gt;Data Collection &lt;br&gt;&amp;amp; Preparation&lt;/font&gt;" style="rounded=1;whiteSpace=wrap;html=1;fillColor=#d5e8d4;strokeColor=#82b366;fontStyle=1" parent="WIyWlLk6GJQsqaUBKTNV-1" vertex="1">
          <mxGeometry x="440" y="190" width="120" height="60" as="geometry" />
        </mxCell>
        <mxCell id="Y0rhrzjeKMUjcfc9ekNY-51" style="edgeStyle=orthogonalEdgeStyle;rounded=0;orthogonalLoop=1;jettySize=auto;html=1;exitX=0.5;exitY=1;exitDx=0;exitDy=0;entryX=1;entryY=0.5;entryDx=0;entryDy=0;" parent="WIyWlLk6GJQsqaUBKTNV-1" source="Y0rhrzjeKMUjcfc9ekNY-3" target="Y0rhrzjeKMUjcfc9ekNY-50" edge="1">
          <mxGeometry relative="1" as="geometry" />
        </mxCell>
        <mxCell id="Y0rhrzjeKMUjcfc9ekNY-59" style="edgeStyle=orthogonalEdgeStyle;rounded=0;orthogonalLoop=1;jettySize=auto;html=1;exitX=0.5;exitY=1;exitDx=0;exitDy=0;entryX=0;entryY=0.5;entryDx=0;entryDy=0;" parent="WIyWlLk6GJQsqaUBKTNV-1" source="Y0rhrzjeKMUjcfc9ekNY-3" target="Y0rhrzjeKMUjcfc9ekNY-58" edge="1">
          <mxGeometry relative="1" as="geometry" />
        </mxCell>
        <mxCell id="Y0rhrzjeKMUjcfc9ekNY-67" style="edgeStyle=orthogonalEdgeStyle;rounded=0;orthogonalLoop=1;jettySize=auto;html=1;exitX=0.5;exitY=1;exitDx=0;exitDy=0;entryX=1;entryY=0.5;entryDx=0;entryDy=0;" parent="WIyWlLk6GJQsqaUBKTNV-1" source="Y0rhrzjeKMUjcfc9ekNY-3" target="Y0rhrzjeKMUjcfc9ekNY-66" edge="1">
          <mxGeometry relative="1" as="geometry" />
        </mxCell>
        <mxCell id="Y0rhrzjeKMUjcfc9ekNY-78" style="edgeStyle=orthogonalEdgeStyle;rounded=0;orthogonalLoop=1;jettySize=auto;html=1;exitX=0.5;exitY=1;exitDx=0;exitDy=0;entryX=0;entryY=0.5;entryDx=0;entryDy=0;" parent="WIyWlLk6GJQsqaUBKTNV-1" source="Y0rhrzjeKMUjcfc9ekNY-3" target="Y0rhrzjeKMUjcfc9ekNY-77" edge="1">
          <mxGeometry relative="1" as="geometry" />
        </mxCell>
        <mxCell id="BzDx3rykiDufLXHR9xNU-12" style="edgeStyle=orthogonalEdgeStyle;rounded=0;orthogonalLoop=1;jettySize=auto;html=1;exitX=0.5;exitY=1;exitDx=0;exitDy=0;entryX=1;entryY=0.5;entryDx=0;entryDy=0;" edge="1" parent="WIyWlLk6GJQsqaUBKTNV-1" source="Y0rhrzjeKMUjcfc9ekNY-3" target="BzDx3rykiDufLXHR9xNU-11">
          <mxGeometry relative="1" as="geometry" />
        </mxCell>
        <mxCell id="BzDx3rykiDufLXHR9xNU-24" style="edgeStyle=orthogonalEdgeStyle;rounded=0;orthogonalLoop=1;jettySize=auto;html=1;exitX=0.5;exitY=1;exitDx=0;exitDy=0;entryX=1;entryY=0.5;entryDx=0;entryDy=0;" edge="1" parent="WIyWlLk6GJQsqaUBKTNV-1" source="Y0rhrzjeKMUjcfc9ekNY-3" target="BzDx3rykiDufLXHR9xNU-9">
          <mxGeometry relative="1" as="geometry" />
        </mxCell>
        <mxCell id="BzDx3rykiDufLXHR9xNU-25" style="edgeStyle=orthogonalEdgeStyle;rounded=0;orthogonalLoop=1;jettySize=auto;html=1;exitX=0.5;exitY=1;exitDx=0;exitDy=0;entryX=0;entryY=0.5;entryDx=0;entryDy=0;" edge="1" parent="WIyWlLk6GJQsqaUBKTNV-1" source="Y0rhrzjeKMUjcfc9ekNY-3" target="BzDx3rykiDufLXHR9xNU-6">
          <mxGeometry relative="1" as="geometry" />
        </mxCell>
        <mxCell id="BzDx3rykiDufLXHR9xNU-26" style="edgeStyle=orthogonalEdgeStyle;rounded=0;orthogonalLoop=1;jettySize=auto;html=1;exitX=0.5;exitY=1;exitDx=0;exitDy=0;entryX=0;entryY=0.5;entryDx=0;entryDy=0;" edge="1" parent="WIyWlLk6GJQsqaUBKTNV-1" source="Y0rhrzjeKMUjcfc9ekNY-3" target="BzDx3rykiDufLXHR9xNU-23">
          <mxGeometry relative="1" as="geometry" />
        </mxCell>
        <mxCell id="Y0rhrzjeKMUjcfc9ekNY-3" value="&lt;font style=&quot;font-size: 14px;&quot;&gt;Creation&lt;/font&gt;" style="rounded=1;whiteSpace=wrap;html=1;fontStyle=1;fillColor=#d5e8d4;strokeColor=#82b366;" parent="WIyWlLk6GJQsqaUBKTNV-1" vertex="1">
          <mxGeometry x="790" y="190" width="120" height="60" as="geometry" />
        </mxCell>
        <mxCell id="Y0rhrzjeKMUjcfc9ekNY-87" style="edgeStyle=orthogonalEdgeStyle;rounded=0;orthogonalLoop=1;jettySize=auto;html=1;exitX=0.25;exitY=1;exitDx=0;exitDy=0;entryX=0;entryY=0.5;entryDx=0;entryDy=0;" parent="WIyWlLk6GJQsqaUBKTNV-1" source="Y0rhrzjeKMUjcfc9ekNY-4" target="Y0rhrzjeKMUjcfc9ekNY-86" edge="1">
          <mxGeometry relative="1" as="geometry" />
        </mxCell>
        <mxCell id="BzDx3rykiDufLXHR9xNU-19" style="edgeStyle=orthogonalEdgeStyle;rounded=0;orthogonalLoop=1;jettySize=auto;html=1;exitX=0.25;exitY=1;exitDx=0;exitDy=0;entryX=0;entryY=0.5;entryDx=0;entryDy=0;" edge="1" parent="WIyWlLk6GJQsqaUBKTNV-1" source="Y0rhrzjeKMUjcfc9ekNY-4" target="BzDx3rykiDufLXHR9xNU-18">
          <mxGeometry relative="1" as="geometry" />
        </mxCell>
        <mxCell id="Y0rhrzjeKMUjcfc9ekNY-4" value="&lt;font style=&quot;font-size: 14px;&quot;&gt;Closure&lt;/font&gt;" style="rounded=1;whiteSpace=wrap;html=1;fillColor=#d5e8d4;strokeColor=#82b366;fontStyle=1" parent="WIyWlLk6GJQsqaUBKTNV-1" vertex="1">
          <mxGeometry x="1310" y="190" width="120" height="60" as="geometry" />
        </mxCell>
        <mxCell id="Y0rhrzjeKMUjcfc9ekNY-7" value="Define project scope &amp;amp; objectives" style="rounded=0;whiteSpace=wrap;html=1;fillColor=#dae8fc;strokeColor=#6c8ebf;" parent="WIyWlLk6GJQsqaUBKTNV-1" vertex="1">
          <mxGeometry x="110" y="270" width="120" height="40" as="geometry" />
        </mxCell>
        <mxCell id="Y0rhrzjeKMUjcfc9ekNY-8" value="Assign roles to team members" style="rounded=0;whiteSpace=wrap;html=1;fillColor=#dae8fc;strokeColor=#6c8ebf;" parent="WIyWlLk6GJQsqaUBKTNV-1" vertex="1">
          <mxGeometry x="110" y="350" width="120" height="40" as="geometry" />
        </mxCell>
        <mxCell id="Y0rhrzjeKMUjcfc9ekNY-9" value="Develop project management plan" style="rounded=0;whiteSpace=wrap;html=1;fillColor=#dae8fc;strokeColor=#6c8ebf;" parent="WIyWlLk6GJQsqaUBKTNV-1" vertex="1">
          <mxGeometry x="110" y="430" width="120" height="40" as="geometry" />
        </mxCell>
        <mxCell id="Y0rhrzjeKMUjcfc9ekNY-15" value="Obtain Sydney AirBnB dataset" style="rounded=0;whiteSpace=wrap;html=1;fillColor=#dae8fc;strokeColor=#6c8ebf;" parent="WIyWlLk6GJQsqaUBKTNV-1" vertex="1">
          <mxGeometry x="380" y="270" width="120" height="40" as="geometry" />
        </mxCell>
        <mxCell id="Y0rhrzjeKMUjcfc9ekNY-38" style="edgeStyle=orthogonalEdgeStyle;rounded=0;orthogonalLoop=1;jettySize=auto;html=1;exitX=0.5;exitY=1;exitDx=0;exitDy=0;" parent="WIyWlLk6GJQsqaUBKTNV-1" source="Y0rhrzjeKMUjcfc9ekNY-16" target="Y0rhrzjeKMUjcfc9ekNY-28" edge="1">
          <mxGeometry relative="1" as="geometry" />
        </mxCell>
        <mxCell id="Y0rhrzjeKMUjcfc9ekNY-40" style="edgeStyle=orthogonalEdgeStyle;rounded=0;orthogonalLoop=1;jettySize=auto;html=1;exitX=0.5;exitY=1;exitDx=0;exitDy=0;" parent="WIyWlLk6GJQsqaUBKTNV-1" source="Y0rhrzjeKMUjcfc9ekNY-16" target="Y0rhrzjeKMUjcfc9ekNY-39" edge="1">
          <mxGeometry relative="1" as="geometry" />
        </mxCell>
        <mxCell id="Y0rhrzjeKMUjcfc9ekNY-49" style="edgeStyle=orthogonalEdgeStyle;rounded=0;orthogonalLoop=1;jettySize=auto;html=1;exitX=0.5;exitY=1;exitDx=0;exitDy=0;" parent="WIyWlLk6GJQsqaUBKTNV-1" source="Y0rhrzjeKMUjcfc9ekNY-16" edge="1">
          <mxGeometry relative="1" as="geometry">
            <mxPoint x="550" y="690" as="targetPoint" />
          </mxGeometry>
        </mxCell>
        <mxCell id="Y0rhrzjeKMUjcfc9ekNY-16" value="Clean and preprocess the data" style="rounded=0;whiteSpace=wrap;html=1;fillColor=#dae8fc;strokeColor=#6c8ebf;" parent="WIyWlLk6GJQsqaUBKTNV-1" vertex="1">
          <mxGeometry x="380" y="590" width="120" height="40" as="geometry" />
        </mxCell>
        <mxCell id="Y0rhrzjeKMUjcfc9ekNY-24" value="Project timeline" style="rounded=0;whiteSpace=wrap;html=1;fillColor=#dae8fc;strokeColor=#6c8ebf;" parent="WIyWlLk6GJQsqaUBKTNV-1" vertex="1">
          <mxGeometry x="380" y="510" width="120" height="40" as="geometry" />
        </mxCell>
        <mxCell id="Y0rhrzjeKMUjcfc9ekNY-25" value="Risk management" style="rounded=0;whiteSpace=wrap;html=1;fillColor=#dae8fc;strokeColor=#6c8ebf;" parent="WIyWlLk6GJQsqaUBKTNV-1" vertex="1">
          <mxGeometry x="110" y="510" width="120" height="40" as="geometry" />
        </mxCell>
        <mxCell id="Y0rhrzjeKMUjcfc9ekNY-28" value="Validate data" style="rounded=0;whiteSpace=wrap;html=1;" parent="WIyWlLk6GJQsqaUBKTNV-1" vertex="1">
          <mxGeometry x="280" y="690" width="100" height="40" as="geometry" />
        </mxCell>
        <mxCell id="Y0rhrzjeKMUjcfc9ekNY-30" value="Risk management plan" style="rounded=0;whiteSpace=wrap;html=1;fillColor=#dae8fc;strokeColor=#6c8ebf;" parent="WIyWlLk6GJQsqaUBKTNV-1" vertex="1">
          <mxGeometry x="380" y="350" width="120" height="40" as="geometry" />
        </mxCell>
        <mxCell id="Y0rhrzjeKMUjcfc9ekNY-31" value="Project cost estimate&amp;nbsp;" style="rounded=0;whiteSpace=wrap;html=1;fillColor=#dae8fc;strokeColor=#6c8ebf;" parent="WIyWlLk6GJQsqaUBKTNV-1" vertex="1">
          <mxGeometry x="380" y="430" width="120" height="40" as="geometry" />
        </mxCell>
        <mxCell id="Y0rhrzjeKMUjcfc9ekNY-39" value="Handle missing values" style="rounded=0;whiteSpace=wrap;html=1;" parent="WIyWlLk6GJQsqaUBKTNV-1" vertex="1">
          <mxGeometry x="390" y="690" width="100" height="40" as="geometry" />
        </mxCell>
        <mxCell id="Y0rhrzjeKMUjcfc9ekNY-48" value="Format data for analysis" style="rounded=0;whiteSpace=wrap;html=1;" parent="WIyWlLk6GJQsqaUBKTNV-1" vertex="1">
          <mxGeometry x="500" y="690" width="100" height="40" as="geometry" />
        </mxCell>
        <mxCell id="Y0rhrzjeKMUjcfc9ekNY-56" style="edgeStyle=orthogonalEdgeStyle;rounded=0;orthogonalLoop=1;jettySize=auto;html=1;exitX=0.25;exitY=1;exitDx=0;exitDy=0;entryX=0.5;entryY=0;entryDx=0;entryDy=0;" parent="WIyWlLk6GJQsqaUBKTNV-1" source="Y0rhrzjeKMUjcfc9ekNY-50" target="Y0rhrzjeKMUjcfc9ekNY-53" edge="1">
          <mxGeometry relative="1" as="geometry" />
        </mxCell>
        <mxCell id="BzDx3rykiDufLXHR9xNU-5" style="edgeStyle=orthogonalEdgeStyle;rounded=0;orthogonalLoop=1;jettySize=auto;html=1;exitX=0.25;exitY=1;exitDx=0;exitDy=0;" edge="1" parent="WIyWlLk6GJQsqaUBKTNV-1" source="Y0rhrzjeKMUjcfc9ekNY-50" target="Y0rhrzjeKMUjcfc9ekNY-52">
          <mxGeometry relative="1" as="geometry" />
        </mxCell>
        <mxCell id="Y0rhrzjeKMUjcfc9ekNY-50" value="Price Distribution &lt;br&gt;task" style="rounded=0;whiteSpace=wrap;html=1;fontStyle=0;fillColor=#dae8fc;strokeColor=#6c8ebf;" parent="WIyWlLk6GJQsqaUBKTNV-1" vertex="1">
          <mxGeometry x="700" y="470" width="120" height="40" as="geometry" />
        </mxCell>
        <mxCell id="Y0rhrzjeKMUjcfc9ekNY-52" value="Extract price data for chart" style="rounded=0;whiteSpace=wrap;html=1;" parent="WIyWlLk6GJQsqaUBKTNV-1" vertex="1">
          <mxGeometry x="620" y="560" width="100" height="40" as="geometry" />
        </mxCell>
        <mxCell id="Y0rhrzjeKMUjcfc9ekNY-53" value="Design and generate chart" style="rounded=0;whiteSpace=wrap;html=1;" parent="WIyWlLk6GJQsqaUBKTNV-1" vertex="1">
          <mxGeometry x="730" y="560" width="100" height="40" as="geometry" />
        </mxCell>
        <mxCell id="Y0rhrzjeKMUjcfc9ekNY-71" style="edgeStyle=orthogonalEdgeStyle;rounded=0;orthogonalLoop=1;jettySize=auto;html=1;exitX=0.25;exitY=1;exitDx=0;exitDy=0;entryX=0;entryY=0.5;entryDx=0;entryDy=0;" parent="WIyWlLk6GJQsqaUBKTNV-1" source="Y0rhrzjeKMUjcfc9ekNY-58" target="Y0rhrzjeKMUjcfc9ekNY-60" edge="1">
          <mxGeometry relative="1" as="geometry" />
        </mxCell>
        <mxCell id="Y0rhrzjeKMUjcfc9ekNY-72" style="edgeStyle=orthogonalEdgeStyle;rounded=0;orthogonalLoop=1;jettySize=auto;html=1;exitX=0.25;exitY=1;exitDx=0;exitDy=0;entryX=0;entryY=0.5;entryDx=0;entryDy=0;" parent="WIyWlLk6GJQsqaUBKTNV-1" source="Y0rhrzjeKMUjcfc9ekNY-58" target="Y0rhrzjeKMUjcfc9ekNY-61" edge="1">
          <mxGeometry relative="1" as="geometry" />
        </mxCell>
        <mxCell id="Y0rhrzjeKMUjcfc9ekNY-73" style="edgeStyle=orthogonalEdgeStyle;rounded=0;orthogonalLoop=1;jettySize=auto;html=1;exitX=0.25;exitY=1;exitDx=0;exitDy=0;entryX=0;entryY=0.5;entryDx=0;entryDy=0;" parent="WIyWlLk6GJQsqaUBKTNV-1" source="Y0rhrzjeKMUjcfc9ekNY-58" target="Y0rhrzjeKMUjcfc9ekNY-62" edge="1">
          <mxGeometry relative="1" as="geometry" />
        </mxCell>
        <mxCell id="Y0rhrzjeKMUjcfc9ekNY-58" value="Keyword-based Search" style="rounded=0;whiteSpace=wrap;html=1;fillColor=#dae8fc;strokeColor=#6c8ebf;" parent="WIyWlLk6GJQsqaUBKTNV-1" vertex="1">
          <mxGeometry x="880" y="530" width="120" height="40" as="geometry" />
        </mxCell>
        <mxCell id="Y0rhrzjeKMUjcfc9ekNY-60" value="Design search functionality" style="rounded=0;whiteSpace=wrap;html=1;" parent="WIyWlLk6GJQsqaUBKTNV-1" vertex="1">
          <mxGeometry x="930" y="590" width="100" height="40" as="geometry" />
        </mxCell>
        <mxCell id="Y0rhrzjeKMUjcfc9ekNY-61" value="Implement algorithm" style="rounded=0;whiteSpace=wrap;html=1;" parent="WIyWlLk6GJQsqaUBKTNV-1" vertex="1">
          <mxGeometry x="930" y="650" width="100" height="40" as="geometry" />
        </mxCell>
        <mxCell id="Y0rhrzjeKMUjcfc9ekNY-62" value="Test and validate algorithm" style="rounded=0;whiteSpace=wrap;html=1;" parent="WIyWlLk6GJQsqaUBKTNV-1" vertex="1">
          <mxGeometry x="930" y="710" width="100" height="40" as="geometry" />
        </mxCell>
        <mxCell id="Y0rhrzjeKMUjcfc9ekNY-74" style="edgeStyle=orthogonalEdgeStyle;rounded=0;orthogonalLoop=1;jettySize=auto;html=1;exitX=0.75;exitY=1;exitDx=0;exitDy=0;entryX=1;entryY=0.5;entryDx=0;entryDy=0;" parent="WIyWlLk6GJQsqaUBKTNV-1" source="Y0rhrzjeKMUjcfc9ekNY-66" target="Y0rhrzjeKMUjcfc9ekNY-68" edge="1">
          <mxGeometry relative="1" as="geometry" />
        </mxCell>
        <mxCell id="Y0rhrzjeKMUjcfc9ekNY-75" style="edgeStyle=orthogonalEdgeStyle;rounded=0;orthogonalLoop=1;jettySize=auto;html=1;exitX=0.75;exitY=1;exitDx=0;exitDy=0;entryX=1;entryY=0.5;entryDx=0;entryDy=0;" parent="WIyWlLk6GJQsqaUBKTNV-1" source="Y0rhrzjeKMUjcfc9ekNY-66" target="Y0rhrzjeKMUjcfc9ekNY-69" edge="1">
          <mxGeometry relative="1" as="geometry" />
        </mxCell>
        <mxCell id="Y0rhrzjeKMUjcfc9ekNY-76" style="edgeStyle=orthogonalEdgeStyle;rounded=0;orthogonalLoop=1;jettySize=auto;html=1;exitX=0.75;exitY=1;exitDx=0;exitDy=0;entryX=1;entryY=0.5;entryDx=0;entryDy=0;" parent="WIyWlLk6GJQsqaUBKTNV-1" source="Y0rhrzjeKMUjcfc9ekNY-66" target="Y0rhrzjeKMUjcfc9ekNY-70" edge="1">
          <mxGeometry relative="1" as="geometry" />
        </mxCell>
        <mxCell id="Y0rhrzjeKMUjcfc9ekNY-66" value="Cleanliness Analysis" style="rounded=0;whiteSpace=wrap;html=1;fillColor=#dae8fc;strokeColor=#6c8ebf;" parent="WIyWlLk6GJQsqaUBKTNV-1" vertex="1">
          <mxGeometry x="700" y="640" width="120" height="40" as="geometry" />
        </mxCell>
        <mxCell id="Y0rhrzjeKMUjcfc9ekNY-68" value="Extract customer reviews data" style="rounded=0;whiteSpace=wrap;html=1;" parent="WIyWlLk6GJQsqaUBKTNV-1" vertex="1">
          <mxGeometry x="660" y="700" width="110" height="40" as="geometry" />
        </mxCell>
        <mxCell id="Y0rhrzjeKMUjcfc9ekNY-69" value="Identify cleanliness related words" style="rounded=0;whiteSpace=wrap;html=1;" parent="WIyWlLk6GJQsqaUBKTNV-1" vertex="1">
          <mxGeometry x="660" y="760" width="110" height="40" as="geometry" />
        </mxCell>
        <mxCell id="Y0rhrzjeKMUjcfc9ekNY-70" value="Quantify frequency&amp;nbsp; of keywords" style="rounded=0;whiteSpace=wrap;html=1;" parent="WIyWlLk6GJQsqaUBKTNV-1" vertex="1">
          <mxGeometry x="660" y="820" width="110" height="40" as="geometry" />
        </mxCell>
        <mxCell id="Y0rhrzjeKMUjcfc9ekNY-83" style="edgeStyle=orthogonalEdgeStyle;rounded=0;orthogonalLoop=1;jettySize=auto;html=1;exitX=0.25;exitY=1;exitDx=0;exitDy=0;entryX=0;entryY=0.5;entryDx=0;entryDy=0;" parent="WIyWlLk6GJQsqaUBKTNV-1" source="Y0rhrzjeKMUjcfc9ekNY-77" target="Y0rhrzjeKMUjcfc9ekNY-79" edge="1">
          <mxGeometry relative="1" as="geometry" />
        </mxCell>
        <mxCell id="Y0rhrzjeKMUjcfc9ekNY-84" style="edgeStyle=orthogonalEdgeStyle;rounded=0;orthogonalLoop=1;jettySize=auto;html=1;exitX=0.25;exitY=1;exitDx=0;exitDy=0;entryX=0;entryY=0.5;entryDx=0;entryDy=0;" parent="WIyWlLk6GJQsqaUBKTNV-1" source="Y0rhrzjeKMUjcfc9ekNY-77" target="Y0rhrzjeKMUjcfc9ekNY-80" edge="1">
          <mxGeometry relative="1" as="geometry" />
        </mxCell>
        <mxCell id="Y0rhrzjeKMUjcfc9ekNY-85" style="edgeStyle=orthogonalEdgeStyle;rounded=0;orthogonalLoop=1;jettySize=auto;html=1;exitX=0.25;exitY=1;exitDx=0;exitDy=0;entryX=0;entryY=0.5;entryDx=0;entryDy=0;" parent="WIyWlLk6GJQsqaUBKTNV-1" source="Y0rhrzjeKMUjcfc9ekNY-77" target="Y0rhrzjeKMUjcfc9ekNY-82" edge="1">
          <mxGeometry relative="1" as="geometry" />
        </mxCell>
        <mxCell id="Y0rhrzjeKMUjcfc9ekNY-77" value="Time Series Analysis" style="rounded=0;whiteSpace=wrap;html=1;fillColor=#dae8fc;strokeColor=#6c8ebf;" parent="WIyWlLk6GJQsqaUBKTNV-1" vertex="1">
          <mxGeometry x="880" y="780" width="120" height="40" as="geometry" />
        </mxCell>
        <mxCell id="Y0rhrzjeKMUjcfc9ekNY-79" value="Extract review date data" style="rounded=0;whiteSpace=wrap;html=1;" parent="WIyWlLk6GJQsqaUBKTNV-1" vertex="1">
          <mxGeometry x="930" y="840" width="100" height="40" as="geometry" />
        </mxCell>
        <mxCell id="Y0rhrzjeKMUjcfc9ekNY-80" value="Analyse by month and/or season" style="rounded=0;whiteSpace=wrap;html=1;" parent="WIyWlLk6GJQsqaUBKTNV-1" vertex="1">
          <mxGeometry x="930" y="900" width="100" height="40" as="geometry" />
        </mxCell>
        <mxCell id="Y0rhrzjeKMUjcfc9ekNY-82" value="Display data visually" style="rounded=0;whiteSpace=wrap;html=1;" parent="WIyWlLk6GJQsqaUBKTNV-1" vertex="1">
          <mxGeometry x="930" y="960" width="100" height="40" as="geometry" />
        </mxCell>
        <mxCell id="Y0rhrzjeKMUjcfc9ekNY-86" value="Review project against initial objectives" style="rounded=0;whiteSpace=wrap;html=1;fillColor=#dae8fc;strokeColor=#6c8ebf;" parent="WIyWlLk6GJQsqaUBKTNV-1" vertex="1">
          <mxGeometry x="1370" y="270" width="130" height="40" as="geometry" />
        </mxCell>
        <mxCell id="Y0rhrzjeKMUjcfc9ekNY-90" style="edgeStyle=orthogonalEdgeStyle;rounded=0;orthogonalLoop=1;jettySize=auto;html=1;exitX=0.25;exitY=1;exitDx=0;exitDy=0;entryX=0;entryY=0.5;entryDx=0;entryDy=0;" parent="WIyWlLk6GJQsqaUBKTNV-1" source="Y0rhrzjeKMUjcfc9ekNY-88" target="Y0rhrzjeKMUjcfc9ekNY-89" edge="1">
          <mxGeometry relative="1" as="geometry" />
        </mxCell>
        <mxCell id="Y0rhrzjeKMUjcfc9ekNY-92" style="edgeStyle=orthogonalEdgeStyle;rounded=0;orthogonalLoop=1;jettySize=auto;html=1;exitX=0.25;exitY=1;exitDx=0;exitDy=0;entryX=0;entryY=0.5;entryDx=0;entryDy=0;" parent="WIyWlLk6GJQsqaUBKTNV-1" source="Y0rhrzjeKMUjcfc9ekNY-88" target="Y0rhrzjeKMUjcfc9ekNY-91" edge="1">
          <mxGeometry relative="1" as="geometry" />
        </mxCell>
        <mxCell id="Y0rhrzjeKMUjcfc9ekNY-88" value="&lt;font style=&quot;font-size: 14px;&quot;&gt;Validation&lt;/font&gt;" style="rounded=1;whiteSpace=wrap;html=1;fontStyle=1;fillColor=#d5e8d4;strokeColor=#82b366;" parent="WIyWlLk6GJQsqaUBKTNV-1" vertex="1">
          <mxGeometry x="1070" y="190" width="120" height="60" as="geometry" />
        </mxCell>
        <mxCell id="Y0rhrzjeKMUjcfc9ekNY-89" value="Analyse insights" style="rounded=0;whiteSpace=wrap;html=1;fillColor=#dae8fc;strokeColor=#6c8ebf;" parent="WIyWlLk6GJQsqaUBKTNV-1" vertex="1">
          <mxGeometry x="1130" y="270" width="120" height="40" as="geometry" />
        </mxCell>
        <mxCell id="Y0rhrzjeKMUjcfc9ekNY-94" style="edgeStyle=orthogonalEdgeStyle;rounded=0;orthogonalLoop=1;jettySize=auto;html=1;exitX=0.25;exitY=1;exitDx=0;exitDy=0;entryX=0;entryY=0.5;entryDx=0;entryDy=0;" parent="WIyWlLk6GJQsqaUBKTNV-1" source="Y0rhrzjeKMUjcfc9ekNY-91" target="Y0rhrzjeKMUjcfc9ekNY-93" edge="1">
          <mxGeometry relative="1" as="geometry" />
        </mxCell>
        <mxCell id="BzDx3rykiDufLXHR9xNU-4" style="edgeStyle=orthogonalEdgeStyle;rounded=0;orthogonalLoop=1;jettySize=auto;html=1;exitX=0.25;exitY=1;exitDx=0;exitDy=0;entryX=0;entryY=0.5;entryDx=0;entryDy=0;" edge="1" parent="WIyWlLk6GJQsqaUBKTNV-1" source="Y0rhrzjeKMUjcfc9ekNY-91" target="BzDx3rykiDufLXHR9xNU-3">
          <mxGeometry relative="1" as="geometry" />
        </mxCell>
        <mxCell id="Y0rhrzjeKMUjcfc9ekNY-91" value="Test full program functionality" style="rounded=0;whiteSpace=wrap;html=1;fillColor=#dae8fc;strokeColor=#6c8ebf;" parent="WIyWlLk6GJQsqaUBKTNV-1" vertex="1">
          <mxGeometry x="1130" y="350" width="120" height="40" as="geometry" />
        </mxCell>
        <mxCell id="Y0rhrzjeKMUjcfc9ekNY-93" value="Identify &amp;amp; address bugs and issues" style="rounded=0;whiteSpace=wrap;html=1;" parent="WIyWlLk6GJQsqaUBKTNV-1" vertex="1">
          <mxGeometry x="1180" y="410" width="110" height="40" as="geometry" />
        </mxCell>
        <mxCell id="BzDx3rykiDufLXHR9xNU-1" value="Outline User/Software Requirements" style="rounded=0;whiteSpace=wrap;html=1;fillColor=#dae8fc;strokeColor=#6c8ebf;" vertex="1" parent="WIyWlLk6GJQsqaUBKTNV-1">
          <mxGeometry x="110" y="590" width="120" height="40" as="geometry" />
        </mxCell>
        <mxCell id="BzDx3rykiDufLXHR9xNU-3" value="Create use cases for software" style="rounded=0;whiteSpace=wrap;html=1;" vertex="1" parent="WIyWlLk6GJQsqaUBKTNV-1">
          <mxGeometry x="1180" y="470" width="110" height="40" as="geometry" />
        </mxCell>
        <mxCell id="BzDx3rykiDufLXHR9xNU-6" value="Software Design &lt;br&gt;flowchart/plan" style="rounded=0;whiteSpace=wrap;html=1;fontStyle=0;fillColor=#dae8fc;strokeColor=#6c8ebf;" vertex="1" parent="WIyWlLk6GJQsqaUBKTNV-1">
          <mxGeometry x="880" y="270" width="120" height="40" as="geometry" />
        </mxCell>
        <mxCell id="BzDx3rykiDufLXHR9xNU-9" value="Identify System components/functions" style="rounded=0;whiteSpace=wrap;html=1;fontStyle=0;fillColor=#dae8fc;strokeColor=#6c8ebf;" vertex="1" parent="WIyWlLk6GJQsqaUBKTNV-1">
          <mxGeometry x="700" y="320" width="120" height="40" as="geometry" />
        </mxCell>
        <mxCell id="BzDx3rykiDufLXHR9xNU-20" style="edgeStyle=orthogonalEdgeStyle;rounded=0;orthogonalLoop=1;jettySize=auto;html=1;exitX=0.25;exitY=1;exitDx=0;exitDy=0;entryX=0.5;entryY=0;entryDx=0;entryDy=0;" edge="1" parent="WIyWlLk6GJQsqaUBKTNV-1" source="BzDx3rykiDufLXHR9xNU-11" target="BzDx3rykiDufLXHR9xNU-13">
          <mxGeometry relative="1" as="geometry" />
        </mxCell>
        <mxCell id="BzDx3rykiDufLXHR9xNU-21" style="edgeStyle=orthogonalEdgeStyle;rounded=0;orthogonalLoop=1;jettySize=auto;html=1;exitX=0.25;exitY=1;exitDx=0;exitDy=0;entryX=0.5;entryY=0;entryDx=0;entryDy=0;" edge="1" parent="WIyWlLk6GJQsqaUBKTNV-1" source="BzDx3rykiDufLXHR9xNU-11" target="BzDx3rykiDufLXHR9xNU-14">
          <mxGeometry relative="1" as="geometry" />
        </mxCell>
        <mxCell id="BzDx3rykiDufLXHR9xNU-11" value="User interface &lt;br&gt;design" style="rounded=0;whiteSpace=wrap;html=1;fontStyle=0;fillColor=#dae8fc;strokeColor=#6c8ebf;" vertex="1" parent="WIyWlLk6GJQsqaUBKTNV-1">
          <mxGeometry x="700" y="880" width="120" height="40" as="geometry" />
        </mxCell>
        <mxCell id="BzDx3rykiDufLXHR9xNU-13" value="Structural Design" style="rounded=0;whiteSpace=wrap;html=1;" vertex="1" parent="WIyWlLk6GJQsqaUBKTNV-1">
          <mxGeometry x="620" y="970" width="100" height="40" as="geometry" />
        </mxCell>
        <mxCell id="BzDx3rykiDufLXHR9xNU-14" value="Visual Design" style="rounded=0;whiteSpace=wrap;html=1;" vertex="1" parent="WIyWlLk6GJQsqaUBKTNV-1">
          <mxGeometry x="730" y="970" width="100" height="40" as="geometry" />
        </mxCell>
        <mxCell id="BzDx3rykiDufLXHR9xNU-18" value="Handover Final Software Version" style="rounded=0;whiteSpace=wrap;html=1;fillColor=#dae8fc;strokeColor=#6c8ebf;" vertex="1" parent="WIyWlLk6GJQsqaUBKTNV-1">
          <mxGeometry x="1370" y="350" width="130" height="40" as="geometry" />
        </mxCell>
        <mxCell id="BzDx3rykiDufLXHR9xNU-29" style="edgeStyle=orthogonalEdgeStyle;rounded=0;orthogonalLoop=1;jettySize=auto;html=1;exitX=0.75;exitY=1;exitDx=0;exitDy=0;entryX=0.5;entryY=0;entryDx=0;entryDy=0;" edge="1" parent="WIyWlLk6GJQsqaUBKTNV-1" source="BzDx3rykiDufLXHR9xNU-23" target="BzDx3rykiDufLXHR9xNU-27">
          <mxGeometry relative="1" as="geometry" />
        </mxCell>
        <mxCell id="BzDx3rykiDufLXHR9xNU-30" style="edgeStyle=orthogonalEdgeStyle;rounded=0;orthogonalLoop=1;jettySize=auto;html=1;exitX=0.75;exitY=1;exitDx=0;exitDy=0;entryX=0.5;entryY=0;entryDx=0;entryDy=0;" edge="1" parent="WIyWlLk6GJQsqaUBKTNV-1" source="BzDx3rykiDufLXHR9xNU-23" target="BzDx3rykiDufLXHR9xNU-28">
          <mxGeometry relative="1" as="geometry" />
        </mxCell>
        <mxCell id="BzDx3rykiDufLXHR9xNU-23" value="Suburb Specific Listing information" style="rounded=0;whiteSpace=wrap;html=1;fontStyle=0;fillColor=#dae8fc;strokeColor=#6c8ebf;" vertex="1" parent="WIyWlLk6GJQsqaUBKTNV-1">
          <mxGeometry x="880" y="360" width="120" height="40" as="geometry" />
        </mxCell>
        <mxCell id="BzDx3rykiDufLXHR9xNU-27" value="Design Search Functionality" style="rounded=0;whiteSpace=wrap;html=1;" vertex="1" parent="WIyWlLk6GJQsqaUBKTNV-1">
          <mxGeometry x="870" y="440" width="100" height="40" as="geometry" />
        </mxCell>
        <mxCell id="BzDx3rykiDufLXHR9xNU-28" value="Implement/Test algorithm" style="rounded=0;whiteSpace=wrap;html=1;" vertex="1" parent="WIyWlLk6GJQsqaUBKTNV-1">
          <mxGeometry x="980" y="440" width="100" height="40" as="geometry" />
        </mxCell>
      </root>
    </mxGraphModel>
  </diagram>
</mxfile>
